<svg width="16" height="17" viewBox="0 0 16 17" fill="none" xmlns="http://www.w3.org/2000/svg">
<path d="M7.15151 0.142578H8.49079C8.60984 0.142578 8.66936 0.202102 8.66936 0.32115V16.0354C8.66936 16.1545 8.60984 16.214 8.49079 16.214H7.15151C7.03246 16.214 6.97294 16.1545 6.97294 16.0354V0.32115C6.97294 0.202102 7.03246 0.142578 7.15151 0.142578Z" fill="black"/>
<path d="M0.32115 7.33008H15.3211C15.4402 7.33008 15.4997 7.3896 15.4997 7.50865V8.84793C15.4997 8.96698 15.4402 9.02651 15.3211 9.02651H0.32115C0.202102 9.02651 0.142578 8.96698 0.142578 8.84793V7.50865C0.142578 7.3896 0.202102 7.33008 0.32115 7.33008Z" fill="black"/>
</svg>
