<svg width="22" height="22" viewBox="0 0 22 22" fill="none" xmlns="http://www.w3.org/2000/svg">
<path d="M19.2383 17.4107C19.1958 17.3424 19.1403 17.2831 19.075 17.2363C19.0096 17.1895 18.9356 17.156 18.8572 17.1379C18.7789 17.1197 18.6977 17.1172 18.6184 17.1304C18.5391 17.1437 18.4631 17.1725 18.395 17.2152C17.4644 17.7945 16.4157 18.1579 15.3262 18.2786C14.2367 18.3992 13.1339 18.2741 12.0991 17.9123C11.0644 17.5506 10.1238 16.9615 9.34674 16.1883C8.56966 15.4151 7.9758 14.4776 7.60884 13.4446H14.765C14.927 13.4446 15.0825 13.3802 15.1971 13.2656C15.3117 13.151 15.3761 12.9956 15.3761 12.8335C15.3761 12.6714 15.3117 12.516 15.1971 12.4014C15.0825 12.2868 14.927 12.2224 14.765 12.2224H7.29107C7.14385 11.4142 7.14385 10.5861 7.29107 9.77795H14.765C14.927 9.77795 15.0825 9.71356 15.1971 9.59896C15.3117 9.48435 15.3761 9.32891 15.3761 9.16684C15.3761 9.00476 15.3117 8.84932 15.1971 8.73471C15.0825 8.62011 14.927 8.55572 14.765 8.55572H7.60884C7.97464 7.52478 8.56645 6.58874 9.34091 5.81617C10.1154 5.0436 11.0529 4.45408 12.0847 4.0908C13.1165 3.72752 14.2165 3.59969 15.3042 3.71666C16.3918 3.83364 17.4395 4.19246 18.3705 4.76684C18.5083 4.85274 18.6745 4.88039 18.8327 4.84372C18.9908 4.80704 19.1279 4.70905 19.2138 4.57128C19.2997 4.43352 19.3274 4.26727 19.2907 4.10911C19.2541 3.95096 19.1561 3.81385 19.0183 3.72795C17.901 3.03678 16.6396 2.61219 15.3318 2.48711C14.024 2.36203 12.705 2.53981 11.4769 3.00667C10.2489 3.47353 9.14491 4.21692 8.2505 5.17923C7.3561 6.14153 6.69532 7.29689 6.3194 8.55572H2.16385C2.00177 8.55572 1.84633 8.62011 1.73172 8.73471C1.61712 8.84932 1.55273 9.00476 1.55273 9.16684C1.55273 9.32891 1.61712 9.48435 1.73172 9.59896C1.84633 9.71356 2.00177 9.77795 2.16385 9.77795H6.05662C5.99484 10.1825 5.96216 10.5909 5.95885 11.0002C5.96216 11.4094 5.99484 11.8178 6.05662 12.2224H2.16385C2.00177 12.2224 1.84633 12.2868 1.73172 12.4014C1.61712 12.516 1.55273 12.6714 1.55273 12.8335C1.55273 12.9956 1.61712 13.151 1.73172 13.2656C1.84633 13.3802 2.00177 13.4446 2.16385 13.4446H6.3194C6.69611 14.7064 7.35901 15.8642 8.25647 16.8279C9.15392 17.7916 10.2617 18.535 11.4936 19.0005C12.7254 19.4659 14.0481 19.6407 15.3585 19.5112C16.669 19.3817 17.9319 18.9515 19.0488 18.2541C19.1167 18.2111 19.1754 18.1553 19.2216 18.0896C19.2678 18.024 19.3007 17.9499 19.3183 17.8716C19.3358 17.7933 19.3378 17.7123 19.3241 17.6332C19.3104 17.5541 19.2812 17.4785 19.2383 17.4107Z" fill="black"/>
</svg>
