<svg width="22" height="23" viewBox="0 0 22 23" fill="none" xmlns="http://www.w3.org/2000/svg">
<path d="M2.35693 8.22595L10.7279 12.687C10.8119 12.7318 10.9052 12.7551 10.9998 12.7551C11.0944 12.7551 11.1877 12.7318 11.2716 12.687L19.6426 8.22675V15.9759C19.6427 16.6442 19.3931 17.2873 18.9452 17.7731C18.4972 18.2589 17.8849 18.5506 17.2336 18.5885L17.0891 18.5925H4.91051C4.25825 18.5925 3.63071 18.3368 3.15661 17.8778C2.68251 17.4188 2.39779 16.7913 2.36086 16.124L2.35693 15.9759V8.22595ZM4.91051 4.10059H17.0891C17.7413 4.10054 18.3689 4.35625 18.843 4.81526C19.3171 5.27426 19.6018 5.90176 19.6387 6.56904L19.6426 6.71718V6.86532L10.9998 11.4705L2.35693 6.86532V6.71718C2.35689 6.04883 2.60644 5.4058 3.05439 4.92C3.50234 4.4342 4.11473 4.14245 4.76593 4.10461L4.91051 4.10059H17.0891H4.91051Z" fill="#DA1F39"/>
</svg>
