<svg width="22" height="23" viewBox="0 0 22 23" fill="none" xmlns="http://www.w3.org/2000/svg">
<path d="M10.9999 2.41699C6.22806 2.41699 2.35986 6.38066 2.35986 11.2702C2.35986 16.1598 6.22806 20.1235 10.9999 20.1235C15.7717 20.1235 19.6399 16.1598 19.6399 11.2702C19.6399 6.38066 15.7717 2.41699 10.9999 2.41699ZM11.5912 13.3683C11.0368 13.3249 10.8046 13.0436 10.3708 12.7744C10.1323 14.0572 9.84066 15.2874 8.97666 15.9302C8.70936 13.9898 9.36726 12.5346 9.67326 10.988C9.15216 10.0889 9.73536 8.28042 10.8352 8.72492C12.1879 9.27456 9.66336 12.0679 11.3581 12.4175C13.1275 12.7808 13.8502 9.27087 12.7531 8.13102C11.1673 6.48303 8.13876 8.09321 8.51136 10.4522C8.60136 11.0286 9.18366 11.2038 8.74356 11.9997C7.72926 11.7691 7.42596 10.9493 7.46556 9.85648C7.52766 8.06739 9.03426 6.8141 10.5445 6.64165C12.4552 6.424 14.248 7.36005 14.4964 9.20263C14.7745 11.2813 13.6333 13.5306 11.5912 13.3683Z" fill="#DA1F39"/>
</svg>
