<svg width="21" height="23" viewBox="0 0 21 23" fill="none" xmlns="http://www.w3.org/2000/svg">
<path d="M19.601 6.19838C19.4907 5.79424 19.2804 5.42614 18.9905 5.12971C18.7006 4.83329 18.3409 4.61859 17.9463 4.50641C16.4649 4.10061 10.5095 4.10061 10.5095 4.10061C10.5095 4.10061 4.56551 4.09087 3.06867 4.50641C2.67466 4.61909 2.31567 4.83401 2.02642 5.13041C1.73716 5.4268 1.52741 5.79464 1.41745 6.19838C1.13613 7.75238 0.997578 9.32998 1.00361 10.9105C1.00086 12.4834 1.13939 14.0532 1.41745 15.6001C1.52777 16.004 1.73758 16.3721 2.02673 16.6691C2.31589 16.966 2.67468 17.1818 3.06867 17.2957C4.55008 17.7015 10.5095 17.7015 10.5095 17.7015C10.5095 17.7015 16.45 17.7015 17.9463 17.2957C18.3409 17.1823 18.7004 16.9667 18.9902 16.6697C19.28 16.3728 19.4904 16.0044 19.601 15.6001C19.8736 14.0541 20.0066 12.482 19.9971 10.9105C20.0066 9.32862 19.8765 7.75407 19.601 6.19838ZM8.60717 13.8229V7.98527L13.5644 10.9105L8.60717 13.8229Z" fill="#DA1F39"/>
</svg>
